<?xml version="1.0" encoding="UTF-8"?><svg id="Laag_1" xmlns="http://www.w3.org/2000/svg" viewBox="0 0 212.63 192.78"><defs><style>.cls-1{fill:#1d1d1b;fill-rule:evenodd;}</style></defs><path class="cls-1" d="M108.43,32.92c3.56-6.01,14.53-2.15,21.82-1.54,22.67-8.6,37.06,10.45,38.8,30.89,11.36,9.75,17.4,24.82,17.76,45.56,9.16,9.87,8.11,29.94,18.15,38.61,2.83,2.45,13.76,10.83,3.09,13.13-12.89,2.78-21.91-11.38-26.84-19.11-3.55,15.98-28.3,24.12-18.92,42.09,7.23,3.39,21.7,.57,24.91,7.34-1.26,.17-1.46-.72-2.32-.96,.13,1.59-4.22,1.27-5.99,.96-.42,.16-.16,.99-.58,1.16-1.83-.07-5.06,.2-6.76-.58-.58,.27,.4,1-.19,1.35-3.59,.49-6.4-.79-8.88-.77-.59,.42,.19,1.09,0,1.74-13.53-1.05-32.53,1.79-31.66-14.29-4.04,2.65-9.07,6.95-9.07,6.95-4.17,4.7-18.26,2.97-24.52,2.12,17.57-6.95,16.41-33.17,20.66-51.36-.56-.47-1.23-.83-1.54-1.54-4.87,10.57-6.75,24.14-13.71,32.63-3.53,.33-4.2-1.24-3.86-5.02,1.01-11.15,8.75-23.13,12.55-31.86-3.02-3.42-10.43-8.57-19.11-11.39-2.6,7.67-1.98,17.36-2.7,27.42-.82,11.5-5.27,36-12.16,41.12-1.97,1.46-5.91,1.21-8.88,1.35-.9,.19-.65,1.54-1.93,1.35-.76,.12-.23-1.06-.39-1.54-4.05,.07-8.41-.17-12.16,.2-.51-.43-.31-.83-.19-1.55-8.64,.74-17.51,.13-26.06,.39-.83-4.51,3.78-5.21,6.56-6.76,3.96-24.37-17-48.45-3.28-73.17-11.67,15.64-20.81,33.55-30.7,51.35-3.56-31.22,24.66-49.26,31.08-72.01,6.24-22.08,8.13-39.27,10.62-63.9,4.46-28.67,42.76-31.36,52.51-5.21,1.87,5,10.39,6.98,12.93,11.39,.34,1.14,.9,2.06,.97,3.47Zm16.13,12c-1.85-4.86-12.32-4.34-16.71-8.13-10.4,2.43-19.95-9.18-33.01-5.02-2.22,7.33,2.65,13.35,2.7,18.53,0,0,8.71,17.32,10.62,25.49,4.73,20.21,18.82,29.67,29.54,43.83,4.67-12.08,17.14-21.65,21.04-34.75,4.31-14.45-.75-30.58-9.85-36.3,0,0-3.19-2.25-4.33-3.64ZM44.91,170.19c-.39,6.8,4.8,7.55,4.63,13.71,1.29,.33,2.42,.79,2.9,1.93-.14,.31-.94-.04-.77,.58,.54-.03,.45,.58,.96,.58,1.93-2.96,6.98-2.8,11.01-3.67-.87-.86-1.15-2.32-2.51-2.7l-.96-.19s-1.35-.78-2.51-1.74l-1.16-1.16-5.02-4.25s-2.35-2.48-4.05-4.44c-.05,.37-1,.36-1.54,.39-.14,.86-.42,.94-.97,.97Zm100.78,3.48s-4.83,1.09-5.4,1.16c-.24,4.55,2.46,6.17,2.9,10.04,2.42,.09,3.97,1.05,6.18,1.35,.14-.98-.21-1.46-.58-1.93l-.77-5.21c-.45-1.35-.94-2.67-.97-4.44,0,0-.84-1.2-1.35-.96Z"/></svg>
